PathFileType	4	(X/Y/Z)	Walk_125 04
DataRate	CameraRate	NumFrames	NumMarkers	Units	OrigDataRate	OrigDataStartFrame	OrigNumFrames
120	120	8	42	mm	120	306	128
Frame#	Time	LASI			RASI			LPSI			RPSI			RTH1			RTH2			RTH3			LTH1			LTH2			LTH3			RTB1			RTB2			RTB3			LTB1			LTB2			LTB3			RCAL			RTOE			RMT5			LCAL			LTOE			LMT5			LACR			RACR			CLAV			C7			RUA1			RUA2			RUA3			RLEL			RMEL			LUA1			LUA2			LUA3			LLEL			LMEL			RFAsuperior			RFAradius			RFAulna			LFAsuperior			LFAradius			LFAulna		
		X1	Y1	Z1	X2	Y2	Z2	X3	Y3	Z3	X4	Y4	Z4	X5	Y5	Z5	X6	Y6	Z6	X7	Y7	Z7	X8	Y8	Z8	X9	Y9	Z9	X10	Y10	Z10	X11	Y11	Z11	X12	Y12	Z12	X13	Y13	Z13	X14	Y14	Z14	X15	Y15	Z15	X16	Y16	Z16	X17	Y17	Z17	X18	Y18	Z18	X19	Y19	Z19	X20	Y20	Z20	X21	Y21	Z21	X22	Y22	Z22	X23	Y23	Z23	X24	Y24	Z24	X25	Y25	Z25	X26	Y26	Z26	X27	Y27	Z27	X28	Y28	Z28	X29	Y29	Z29	X30	Y30	Z30	X31	Y31	Z31	X32	Y32	Z32	X33	Y33	Z33	X34	Y34	Z34	X35	Y35	Z35	X36	Y36	Z36	X37	Y37	Z37	X38	Y38	Z38	X39	Y39	Z39	X40	Y40	Z40	X41	Y41	Z41	X42	Y42	Z42	

306	  2.550000	863.262327	1062.948613	-593.703356	855.240782	1065.359298	-327.927843	676.119808	1087.497350	-511.796694	677.504420	1085.685026	-430.378938	753.974252	910.210562	-272.763232	762.230391	798.491016	-285.616277	648.314435	715.929248	-311.561279	849.790405	854.514024	-649.761275	953.946121	763.315012	-644.111612	932.892559	636.493378	-613.188563	589.255501	407.096875	-384.749113	542.909019	354.535829	-317.683729	513.451110	258.542808	-388.163146	1068.917553	436.384339	-555.073761	1068.312263	346.607076	-608.901838	1117.860388	242.715755	-543.830536	345.309020	150.484981	-396.587659	561.472031	 70.069037	-437.856956	492.579746	 47.696100	-343.687012	1056.853920	 89.714473	-537.145201	1284.774677	128.909203	-512.256019	1230.251238	 83.182389	-600.436104	822.151927	1526.809555	-624.732847	841.193682	1521.401834	-278.488052	887.894211	1472.962702	-423.043653	765.875241	1569.866185	-443.374064	834.605006	1408.298841	-205.602516	844.789351	1315.890030	-213.177911	778.933505	1297.917850	-179.956349	773.101508	1162.929278	-140.997887	752.731248	1151.042822	-213.414615	791.633232	1429.505735	-691.123887	798.252283	1356.891231	-682.685126	702.389121	1339.167228	-668.680735	693.869388	1176.734255	-706.471271	669.651645	1175.678719	-634.772291	862.123436	1110.983189	-118.045525	998.336259	990.966121	-158.783657	952.251577	962.933018	-106.527160	738.944394	1098.728234	-732.601811	753.728714	902.634869	-707.179347	695.302896	907.031456	-748.763021	
307	  2.558333	865.432100	1062.149167	-595.103534	857.543740	1063.602741	-329.368237	678.279198	1086.925609	-513.342953	679.960249	1084.423672	-431.854850	755.608108	908.897738	-274.354021	763.393587	797.225038	-286.918067	649.326871	715.230829	-312.948296	852.618885	854.257683	-649.939477	957.032216	762.994474	-643.726398	935.562160	636.189220	-612.756233	586.773109	406.783460	-384.883551	539.580487	355.354683	-317.956504	508.048119	259.769257	-387.986148	1069.000611	434.432682	-553.859037	1066.738426	344.576777	-607.373933	1114.280639	239.977840	-541.999869	337.938252	155.124407	-395.737385	551.926555	 69.482876	-437.688225	482.567553	 48.244620	-343.868846	1050.015816	 91.345979	-536.592050	1279.187308	119.656380	-510.018356	1222.944788	 77.146704	-598.820183	823.209511	1526.205811	-626.137823	842.417022	1520.378083	-279.711887	889.215451	1472.027525	-424.237741	766.826394	1568.817742	-444.527624	835.536925	1407.109432	-207.005585	845.250407	1314.705875	-214.677586	779.218571	1296.935808	-181.721336	772.404406	1161.954118	-143.184537	752.375740	1150.319734	-215.656309	792.772355	1428.765461	-692.451775	799.508357	1356.181359	-684.138277	703.661310	1338.297115	-669.780298	695.289166	1175.957029	-708.076035	671.234901	1174.689327	-636.347413	860.623235	1109.034666	-119.479018	995.523141	987.139088	-159.157836	948.695615	959.787953	-107.179534	740.555000	1098.113350	-734.426300	755.947533	901.070133	-708.457174	697.563500	906.290063	-750.767593	
308	  2.566667	867.678227	1061.644983	-596.506493	860.026870	1061.953659	-330.853789	680.574075	1086.646405	-514.933110	682.519792	1083.423730	-433.279326	757.561622	907.597005	-276.068126	764.890900	796.045485	-288.322364	650.773201	714.468009	-314.363955	855.697749	854.258721	-650.173202	959.843450	762.821987	-643.100750	937.881687	636.149277	-612.405420	584.936840	406.554675	-385.356050	536.745532	356.257312	-318.221167	503.082505	261.139971	-387.785743	1069.195258	433.168608	-553.080525	1065.504451	343.281369	-606.304648	1111.220250	238.049758	-540.837160	331.052726	160.185149	-394.742739	542.462194	 68.852628	-437.530410	472.743531	 48.906039	-344.011229	1043.381238	 93.263475	-536.119751	1273.518852	111.226668	-509.101575	1215.407354	 71.468261	-597.863710	824.275555	1525.759369	-627.593838	843.605863	1519.566926	-280.948854	890.589376	1471.370663	-425.478421	767.819613	1568.021937	-445.751719	836.524380	1406.040841	-208.505274	845.676440	1313.652938	-216.306786	779.440957	1296.110594	-183.575736	771.575923	1161.146267	-145.556776	751.959318	1149.763566	-218.066319	794.083604	1428.191744	-693.859410	800.906273	1355.634785	-685.598818	705.083568	1337.578641	-670.972928	696.913668	1175.314148	-709.757371	672.863495	1173.827029	-637.938653	858.869731	1107.165007	-121.008296	992.378560	983.309289	-159.453235	944.704688	956.666510	-107.871370	742.332943	1097.621743	-736.200754	758.632131	900.042367	-710.092540	700.153525	905.670082	-752.799117	
309	  2.575000	869.978763	1061.535413	-597.946267	862.717430	1060.492298	-332.335817	682.972821	1086.660997	-516.477273	685.127347	1082.769441	-434.641613	759.870841	906.332120	-277.878956	766.768728	794.936175	-289.889272	652.689596	713.674907	-315.797095	858.931894	854.531882	-650.476023	962.365166	762.878947	-642.257854	939.925049	636.389401	-612.269966	583.713310	406.390658	-385.937097	534.468889	357.279908	-318.457239	498.633710	262.681938	-387.576069	1069.559571	432.545124	-552.722157	1064.692975	342.690177	-605.768918	1108.388605	236.716580	-540.343647	324.744805	165.728173	-393.647410	533.085480	 68.205801	-437.396946	463.113224	 49.726651	-344.108544	1036.518412	 95.109812	-535.752563	1267.402406	103.756226	-509.458597	1207.353498	 66.424522	-597.760421	825.334475	1525.468086	-628.986892	844.737024	1519.010794	-282.163105	892.021850	1471.092403	-426.748024	768.884772	1567.501178	-447.017780	837.543168	1405.150460	-210.066206	846.051886	1312.773558	-218.065373	779.579179	1295.465702	-185.537479	770.624843	1160.543282	-148.121008	751.505929	1149.406616	-220.666002	795.536683	1427.789183	-695.308969	802.444033	1355.293608	-687.058354	706.676986	1337.035261	-672.243593	698.770412	1174.825495	-711.511514	674.687749	1173.104417	-639.609653	856.866235	1105.399060	-122.666705	988.879609	979.502541	-159.690971	940.255695	953.604719	-108.637676	744.336850	1097.287023	-738.027423	761.726381	899.582299	-712.142256	703.067221	905.205408	-754.874928	
310	  2.583333	872.310755	1061.868635	-599.461539	865.640058	1059.264199	-333.828371	685.403669	1086.926921	-517.856591	687.803961	1082.416582	-435.933478	762.557056	905.130427	-279.776156	769.098131	793.888510	-291.616101	655.127274	712.889748	-317.255548	862.148104	855.070924	-650.974531	964.726889	763.244331	-641.279892	941.925656	636.905283	-612.509290	583.124963	406.271964	-386.421939	532.820390	358.448335	-318.650343	494.785517	264.412204	-387.327884	1070.089389	432.320002	-552.621274	1064.110814	342.538688	-605.686296	1105.281573	235.598691	-540.320152	319.112880	171.814904	-392.543705	523.810391	 67.579060	-437.305310	453.654193	 50.740494	-344.205476	1028.979007	 96.629296	-535.581983	1260.480706	 97.215494	-510.577090	1198.625501	 62.206209	-598.431988	826.391781	1525.381874	-630.268716	845.832247	1518.735049	-283.325158	893.517587	1471.224880	-428.022187	770.028378	1567.238240	-448.278887	838.546398	1404.511277	-211.629918	846.368997	1312.124425	-219.929523	779.619477	1295.040234	-187.643102	769.548697	1160.188368	-150.882107	751.000667	1149.305917	-223.477348	797.077565	1427.599631	-696.757191	804.104148	1355.205525	-688.518082	708.454132	1336.691054	-673.579844	700.867909	1174.520132	-713.319610	676.818147	1172.557185	-641.388962	854.629309	1103.781329	-124.465627	984.999079	975.759156	-159.904748	935.332590	950.659520	-109.500413	746.633740	1097.170548	-740.012337	765.170447	899.656075	-714.568389	706.305645	904.935007	-757.006555	
311	  2.591667	874.640198	1062.629478	-601.074316	868.784721	1058.273543	-335.415244	687.797811	1087.366060	-518.967653	690.617131	1082.241980	-437.108156	765.607437	904.017177	-281.776449	771.937825	792.913311	-293.454746	658.150834	712.122845	-318.760065	865.166566	855.871317	-651.824333	967.197504	764.046770	-640.301154	944.216656	637.742003	-613.265146	583.285056	406.179638	-386.738423	531.873434	359.770263	-318.806376	491.629305	266.322887	-386.974041	1070.728932	432.244852	-552.508270	1063.467730	342.538513	-605.862810	1101.532407	234.448525	-540.469536	314.273915	178.490790	-391.531356	514.666379	 67.016510	-437.275148	444.366132	 51.985994	-344.348966	1020.575187	 97.732380	-535.646280	1252.608885	 91.679094	-511.738020	1189.301433	 58.964632	-599.483070	827.460387	1525.570949	-631.473631	846.946656	1518.742449	-284.416242	895.066448	1471.704984	-429.284769	771.222125	1567.195647	-449.487576	839.467167	1404.180503	-213.140102	846.624679	1311.754032	-221.864486	779.561114	1294.879147	-189.920385	768.331434	1160.112199	-153.838313	750.400601	1149.522189	-226.509138	798.647421	1427.685230	-698.162077	805.858460	1355.403966	-689.972697	710.405400	1336.557567	-674.992889	703.188164	1174.423225	-715.155218	679.260000	1172.225243	-643.248577	852.156901	1102.364555	-126.394223	980.715992	972.132574	-160.126210	929.929074	947.890118	-110.468248	749.251978	1097.324989	-742.149393	768.966395	900.290102	-717.352579	709.883619	904.893202	-759.198819	
312	  2.600000	876.928041	1063.753511	-602.788185	872.106529	1057.515577	-337.177037	690.149623	1087.892042	-519.777637	693.617350	1082.147373	-438.095700	768.976328	903.016109	-283.891785	775.303652	792.033893	-295.346279	661.828657	711.342426	-320.328589	867.894369	856.941185	-653.083386	970.061443	765.451681	-639.463198	947.091465	638.988483	-614.592424	584.365064	406.081781	-386.927201	531.720845	361.235901	-318.943589	489.281873	268.381141	-386.462824	1071.328320	432.193331	-552.154616	1062.573104	342.563878	-606.082435	1097.071693	233.291194	-540.531323	310.383544	185.779701	-390.665423	505.700811	 66.556327	-437.323738	435.314162	 53.521694	-344.533809	1011.422557	 98.463735	-535.874823	1243.875892	 87.381724	-512.403789	1179.594986	 56.774719	-600.382769	828.541492	1526.072644	-632.657219	848.134903	1519.014487	-285.438570	896.640992	1472.414960	-430.529288	772.422689	1567.347484	-450.614313	840.247160	1404.174557	-214.568918	846.816325	1311.683594	-223.837262	779.413801	1295.011578	-192.361648	766.949898	1160.324481	-156.974939	749.684736	1150.087299	-229.753954	800.203136	1428.086829	-699.487048	807.683831	1355.892469	-691.400626	712.493432	1336.628318	-676.504617	705.693760	1174.545254	-716.995520	681.938055	1172.122307	-645.136258	849.416897	1101.198045	-128.440586	976.022722	968.677684	-160.375756	924.048100	945.339621	-111.549995	752.161976	1097.762005	-744.309723	773.167426	901.500366	-720.454442	713.821971	905.101760	-761.455816	
313	  2.608333	879.150957	1065.157397	-604.595538	875.543475	1057.008115	-339.112133	692.523339	1088.446765	-520.349299	696.775115	1082.118637	-438.861325	772.604602	902.145395	-286.092835	779.166161	791.263625	-297.251788	666.216183	710.480974	-321.960227	870.385370	858.271734	-654.651340	973.425010	767.544743	-638.880117	950.627369	640.682213	-616.403139	586.533599	405.929875	-387.060822	532.491188	362.817440	-319.076999	487.895441	270.543859	-385.816893	1071.590587	432.119473	-551.557090	1061.378426	342.658136	-606.192485	1092.013451	232.319452	-540.359008	307.645326	193.693408	-389.930795	496.966238	 66.213292	-437.464125	426.624118	 55.429060	-344.699950	1001.793845	 98.930195	-536.134733	1234.493688	 84.505807	-512.472199	1169.693263	 55.549000	-600.795823	829.617961	1526.873229	-633.839355	849.416976	1519.518909	-286.416793	898.206210	1473.263248	-431.747849	773.601174	1567.695553	-451.653584	840.874778	1404.468254	-215.924124	846.940401	1311.903667	-225.816679	779.188881	1295.435827	-194.920864	765.386260	1160.819887	-160.262822	748.882067	1150.987543	-233.186345	801.729752	1428.795311	-700.713939	809.573034	1356.644837	-692.773786	714.661015	1336.889534	-678.109603	708.345613	1174.883492	-718.830463	684.759679	1172.227591	-647.019368	846.377025	1100.319916	-130.604644	970.922777	965.433879	-160.667313	917.702396	943.030528	-112.766730	755.301845	1098.454142	-746.353569	777.800527	903.137643	-723.694929	718.132672	905.566755	-763.784850	
